<svg height="512pt" viewBox="0 0 512 512" width="512pt" xmlns="http://www.w3.org/2000/svg"><path d="m361.992188 402.898438-50.441407 50.441406-179.476562-179.476563c-31.285157-31.289062-46.296875-75.316406-40.632813-119.199219 1.042969-8.066406 10.890625-11.425781 16.644532-5.671874zm0 0" fill="#b7bbe6"/><path d="m311.300781 401.566406c-25.265625 25.261719-25.265625 66.222656 0 91.484375 25.261719 25.265625 66.222657 25.265625 91.484375 0 25.265625-25.261719 25.265625-66.222656 0-91.484375-25.261718-25.265625-66.222656-25.265625-91.484375 0zm65.472657 65.472656c-10.898438 10.898438-28.5625 10.898438-39.460938 0-10.898438-10.898437-10.898438-28.5625 0-39.460937s28.5625-10.898437 39.460938 0c10.898437 10.898437 10.898437 28.566406 0 39.460937zm0 0" fill="#0d70b2"/><path d="m402.785156 401.566406c-16.203125-16.203125-38.894531-22.007812-59.730468-17.425781 11.648437 2.558594 22.769531 8.363281 31.828124 17.425781 25.261719 25.261719 25.261719 66.222656 0 91.484375-9.058593 9.0625-20.1875 14.863281-31.835937 17.425781 20.835937 4.582032 43.535156-1.21875 59.738281-17.425781 25.265625-25.261719 25.265625-66.222656 0-91.484375zm0 0" fill="#0b5f96"/><path d="m485.960938 296.769531h-459.921876c-14.382812 0-26.039062-11.65625-26.039062-26.039062v-244.691407c0-14.382812 11.65625-26.039062 26.039062-26.039062h459.921876c14.382812 0 26.039062 11.65625 26.039062 26.039062v244.691407c0 14.382812-11.65625 26.039062-26.039062 26.039062zm0 0" fill="#0d70b2"/><path d="m486.738281.0195312v241.4921878c0 15.164062-12.292969 27.457031-27.457031 27.457031h-459.28125v1.765625c0 14.378906 11.65625 26.035156 26.039062 26.035156h459.921876c14.382812 0 26.039062-11.65625 26.039062-26.035156v-244.695313c0-14.121093-11.242188-25.605468-25.261719-26.0195308zm0 0" fill="#0b5f96"/><path d="m0 82.699219h512v-55.875c0-14.816407-12.007812-26.824219-26.824219-26.824219h-458.351562c-14.816407 0-26.824219 12.007812-26.824219 26.824219zm0 0" fill="#17ace8"/><path d="m486.738281.0507812v82.6484378h25.261719v-55.875c0-14.289063-11.175781-25.964844-25.261719-26.7734378zm0 0" fill="#1391c4"/><path d="m150.007812 402.898438 50.441407 50.441406 179.476562-179.476563c31.285157-31.289062 46.296875-75.316406 40.632813-119.199219-1.042969-8.066406-10.890625-11.425781-16.644532-5.671874zm0 0" fill="#c5c9f7"/><path d="m420.558594 154.664062c-1.042969-8.066406-10.890625-11.425781-16.644532-5.671874l-7.804687 7.804687c4.042969 43.074219-11.277344 85.832031-41.996094 116.550781l-166.828125 166.828125 13.164063 13.164063 179.476562-179.476563c31.285157-31.289062 46.296875-75.316406 40.632813-119.199219zm0 0" fill="#9fa2c7"/><path d="m109.214844 401.566406c-25.265625 25.261719-25.265625 66.222656 0 91.484375 25.261718 25.265625 66.222656 25.265625 91.484375 0 25.265625-25.261719 25.265625-66.222656 0-91.484375-25.261719-25.265625-66.222657-25.265625-91.484375 0zm26.011718 26.011719c10.898438-10.898437 28.5625-10.898437 39.460938 0s10.898438 28.5625 0 39.460937c-10.898438 10.898438-28.5625 10.898438-39.460938 0-10.898437-10.894531-10.898437-28.5625 0-39.460937zm0 0" fill="#0d70b2"/><path d="m200.703125 401.566406c-16.203125-16.203125-38.910156-22.003906-59.746094-17.425781 11.652344 2.5625 22.78125 8.363281 31.839844 17.425781 25.265625 25.261719 25.265625 66.222656 0 91.484375-9.058594 9.0625-20.191406 14.863281-31.839844 17.425781 20.835938 4.582032 43.539063-1.21875 59.746094-17.425781 25.261719-25.261719 25.261719-66.222656 0-91.484375zm0 0" fill="#0b5f96"/></svg>