<svg id="Capa_1" enable-background="new 0 0 512 512" height="512" viewBox="0 0 512 512" width="512" xmlns="http://www.w3.org/2000/svg"><g><g><path d="m486.263 15v282.167c0 86.379-70.269 156.649-156.639 156.649h-174.868c-10.39 0-20.55 2.89-29.38 8.37-82.751 51.292-78.674 49.81-84.639 49.81-8.299 0-15-6.742-15-15v-340.337c0-86.38 70.279-156.659 156.669-156.659h288.857c8.29 0 15 6.72 15 15z" fill="#fabe2c"/></g><path d="m486.263 15v282.167c0 86.379-70.269 156.649-156.639 156.649h-73.619v-453.816h215.258c8.29 0 15 6.72 15 15z" fill="#ff9100"/><g><path d="m271.005 101.848v174.73c0 8.28-6.72 15-15 15-8.29 0-15-6.72-15-15v-174.73c0-8.28 6.71-15 15-15 8.28 0 15 6.72 15 15z" fill="#f0f7ff"/></g><g><circle cx="256.005" cy="337.118" fill="#f0f7ff" r="15"/></g><g fill="#dfe7f4"><path d="m271.005 337.118c0 8.28-6.72 15-15 15v-30c8.28 0 15 6.71 15 15z"/><path d="m271.005 101.848v174.73c0 8.28-6.72 15-15 15v-204.73c8.28 0 15 6.72 15 15z"/></g></g></svg>