<svg height="512" viewBox="0 0 64 64" width="512" xmlns="http://www.w3.org/2000/svg"><g id="Layer_25" data-name="Layer 25"><path d="m9 6h42v56h-42z" fill="#e4f5fd"/><path d="m13 2v48l8 8h34v-56z" fill="#bce4f8"/><rect fill="#e4f5fd" height="48" rx="3" width="36" x="16" y="5"/><rect fill="#fff" height="34" rx="5" width="25" x="18" y="8"/><path d="m19 20h26v24h-26z" fill="#3477cc"/><path d="m13 50h8v8z" fill="#fff"/><path d="m32 30 14-14 3 3-14 14-5 2z" fill="#e0e0e0"/><path d="m35 33-3-3-2 5z" fill="#bdbdbd"/><path d="m55 1h-42a1 1 0 0 0 -1 1v3h-3a1 1 0 0 0 -1 1v56a1 1 0 0 0 1 1h42a1 1 0 0 0 1-1v-3h3a1 1 0 0 0 1-1v-56a1 1 0 0 0 -1-1zm-35 54.586-4.586-4.586h4.586zm30 5.414h-40v-54h2v43a1 1 0 0 0 .293.707l8 8a1 1 0 0 0 .707.293h29zm4-4h-32v-7a1 1 0 0 0 -1-1h-7v-46h40z"/><path d="m50 9h2v-3a1 1 0 0 0 -1-1h-3v2h2z"/><path d="m50 53h-2v2h3a1 1 0 0 0 1-1v-3h-2z"/><path d="m18 7h2v-2h-3a1 1 0 0 0 -1 1v3h2z"/><path d="m50 11h2v2h-2z"/><path d="m19 19a1 1 0 0 0 -1 1v24a1 1 0 0 0 1 1h26a1 1 0 0 0 1-1v-20.586l3.707-3.707a1 1 0 0 0 0-1.414l-3-3a1 1 0 0 0 -1.414 0l-3.707 3.707zm25 20h-6v2h6v2h-24v-22h19.586l-2 2h-7.586v2h5.586l-4.293 4.293a1.01 1.01 0 0 0 -.222.336l-2 5a1 1 0 0 0 1.3 1.3l5-2a1.01 1.01 0 0 0 .336-.222l8.293-8.293zm-11.635-7.221.856.856-1.426.57zm13.635-14.365 1.586 1.586-12.586 12.586-1.586-1.586z"/><path d="m26 23h2v2h-2z"/><path d="m30 39h2v2h-2z"/><path d="m26 39h2v2h-2z"/><path d="m34 39h2v2h-2z"/><path d="m22 23h2v2h-2z"/><path d="m22 27h2v2h-2z"/><path d="m22 31h2v2h-2z"/><path d="m22 35h2v2h-2z"/><path d="m22 39h2v2h-2z"/></g></svg>