<svg id="Capa_1" enable-background="new 0 0 512 512" height="512" viewBox="0 0 512 512" width="512" xmlns="http://www.w3.org/2000/svg" xmlns:xlink="http://www.w3.org/1999/xlink"><linearGradient id="lg1"><stop offset="0" stop-color="#ffbef9"/><stop offset="1" stop-color="#fff1ff"/></linearGradient><linearGradient id="SVGID_1_" gradientUnits="userSpaceOnUse" x1="165.502" x2="165.502" xlink:href="#lg1" y1="482" y2="0"/><linearGradient id="SVGID_2_" gradientUnits="userSpaceOnUse" x1="346.498" x2="346.498" xlink:href="#lg1" y1="512" y2="30"/><linearGradient id="SVGID_3_" gradientUnits="userSpaceOnUse" x1="256" x2="256" y1="346" y2="166"><stop offset="0" stop-color="#a93aff"/><stop offset="1" stop-color="#ff81ff"/></linearGradient><g><path d="m91.652 452h-15.652c-8.284 0-15 6.716-15 15s6.716 15 15 15h60c8.284 0 15-6.716 15-15v-60c0-8.284-6.716-15-15-15s-15 6.716-15 15v30.029c-56.704-42.515-91-109.693-91-181.029 0-124.617 101.383-226 226-226 19.06 0 37.989 2.385 56.261 7.088 8.023 2.064 16.2-2.765 18.266-10.788s-2.765-16.201-10.787-18.266c-20.715-5.331-42.159-8.034-63.74-8.034-68.113 0-132.327 26.702-180.812 75.188-48.486 48.485-75.188 112.699-75.188 180.812 0 75.929 34.274 147.68 91.652 196z" fill="url(#SVGID_1_)"/><path d="m420.348 60h15.652c8.284 0 15-6.716 15-15s-6.716-15-15-15h-60c-8.284 0-15 6.716-15 15v60c0 8.284 6.716 15 15 15s15-6.716 15-15v-30.029c56.703 42.515 91 109.693 91 181.029 0 124.617-101.383 226-226 226-19.061 0-37.989-2.385-56.261-7.087-8.022-2.064-16.2 2.764-18.265 10.788-2.065 8.022 2.765 16.2 10.788 18.265 20.712 5.331 42.157 8.034 63.738 8.034 68.113 0 132.327-26.702 180.812-75.188 48.486-48.485 75.188-112.699 75.188-180.812 0-75.929-34.274-147.68-91.652-196z" fill="url(#SVGID_2_)"/><path d="m316 241v-45c0-8.284-6.716-15-15-15s-15 6.716-15 15v45h-60v-15c0-33.084-26.916-60-60-60s-60 26.916-60 60v60c0 33.084 26.916 60 60 60s60-26.916 60-60v-15h165c8.284 0 15-6.716 15-15s-6.716-15-15-15h-15v-45c0-8.284-6.716-15-15-15s-15 6.716-15 15v45zm-120 45c0 16.542-13.458 30-30 30s-30-13.458-30-30v-60c0-16.542 13.458-30 30-30s30 13.458 30 30z" fill="url(#SVGID_3_)"/></g></svg>