<svg id="Filled" height="512" viewBox="0 0 512 512" width="512" xmlns="http://www.w3.org/2000/svg"><rect fill="#c3c6c7" height="320" rx="32" width="464" x="24" y="96"/><path d="m456 144h-224v-64a32 32 0 0 0 -32-32h-144a32 32 0 0 0 -32 32v352a32 32 0 0 0 32 32h400a32 32 0 0 0 32-32v-256a32 32 0 0 0 -32-32z" fill="#e9eef2"/><circle cx="256.15" cy="248" fill="#f7d1b2" r="32"/><path d="m328 354.81a88.291 88.291 0 0 1 -144 0c2.415-41.76 33.73-74.81 72-74.81s69.585 33.05 72 74.81z" fill="#f7d1b2"/><path d="m456 88h-216v-8a40.045 40.045 0 0 0 -40-40h-144a40.045 40.045 0 0 0 -40 40v352a40.045 40.045 0 0 0 40 40h400a40.045 40.045 0 0 0 40-40v-304a40.045 40.045 0 0 0 -40-40zm24 344a24.028 24.028 0 0 1 -24 24h-400a24.028 24.028 0 0 1 -24-24v-352a24.028 24.028 0 0 1 24-24h144a24.028 24.028 0 0 1 24 24v64a8 8 0 0 0 8 8h224a24.028 24.028 0 0 1 24 24zm0-287.978a39.788 39.788 0 0 0 -24-8.022h-216v-32h216a24.028 24.028 0 0 1 24 24z"/><path d="m283.337 277.305a40 40 0 1 0 -54.465-.087c-29.225 11.594-50.79 41.352-52.859 77.131a8 8 0 0 0 1.463 5.09 96.29 96.29 0 0 0 157.048 0 8 8 0 0 0 1.463-5.09c-2.064-35.693-23.532-65.391-52.65-77.044zm-27.187-53.305a24 24 0 1 1 -24 24 24.028 24.028 0 0 1 24-24zm-.15 160a80.412 80.412 0 0 1 -63.8-31.545c3.379-36.367 30.93-64.455 63.8-64.455s60.421 28.088 63.8 64.455a80.412 80.412 0 0 1 -63.8 31.545z"/></svg>